<svg width="135" height="23" viewBox="0 0 135 23" version="1.1" xmlns="http://www.w3.org/2000/svg" xmlns:xlink="http://www.w3.org/1999/xlink">
<title>logo</title>
<desc>Created using Figma</desc>
<g id="Canvas" transform="translate(585 250)">
<g id="logo">
<g id="Fill 1">
<use xlink:href="#path0_fill" transform="translate(-585 -250)" fill="#FFFFFF"/>
</g>
<g id="Fill 2">
<use xlink:href="#path1_fill" transform="translate(-564.677 -249.701)" fill="#FFFFFF"/>
</g>
<g id="Fill 3">
<use xlink:href="#path2_fill" transform="translate(-545.47 -249.005)" fill="#FFFFFF"/>
</g>
<g id="Fill 4">
<use xlink:href="#path3_fill" transform="translate(-527.718 -249.304)" fill="#FFFFFF"/>
</g>
<g id="Fill 5">
<use xlink:href="#path4_fill" transform="translate(-507.734 -249.304)" fill="#FFFFFF"/>
</g>
<g id="Fill 6">
<use xlink:href="#path5_fill" transform="translate(-483.64 -249.701)" fill="#FFFFFF"/>
</g>
<g id="Fill 7">
<use xlink:href="#path6_fill" transform="translate(-463.007 -249.005)" fill="#FFFFFF"/>
</g>
</g>
</g>
<defs>
<path id="path0_fill" fill-rule="evenodd" d="M 9.49054 0L 18.9104 22.2466L 16.5096 22.2466L 9.49054 5.35906L 2.40088 22.2466L 0 22.2466L 9.49054 0Z"/>
<path id="path1_fill" fill-rule="evenodd" d="M 0 0L 15.5634 17.0581L 15.5634 0.696517L 17.7665 0.696517L 17.7665 22.7015L 2.20314 5.61497L 2.20314 21.9481L 0 21.9481L 0 0Z"/>
<path id="path2_fill" fill-rule="evenodd" d="M 14.5182 0L 17.0602 0L 9.65993 11.9976L 9.65993 21.2516L 7.45679 21.2516L 7.45679 11.9976L 14.5182 0ZM 0 0L 2.59856 0L 8.30417 9.21137L 6.96251 11.2442L 0 0Z"/>
<path id="path3_fill" fill-rule="evenodd" d="M 10.9314 21.8771C 9.34954 21.8771 7.89001 21.5904 6.55341 21.017C 5.21625 20.4437 4.06543 19.6619 3.10038 18.6715C 2.13534 17.6812 1.37721 16.5203 0.826546 15.1888C 0.27533 13.8573 0 12.4477 0 10.9599C 0 9.46252 0.280336 8.0481 0.840451 6.71665C 1.40057 5.38515 2.1726 4.22428 3.15656 3.23395C 4.14052 2.24362 5.29635 1.45703 6.62405 0.874216C 7.95119 0.291405 9.38736 0 10.9314 0C 12.4566 0 13.8549 0.272482 15.1259 0.81739C 16.3969 1.3623 17.5266 2.09913 18.515 3.02782L 17.1878 4.54883C 16.378 3.80965 15.4552 3.18418 14.4195 2.67242C 13.3838 2.16071 12.2119 1.90486 10.9031 1.90486C 9.61318 1.90486 8.43399 2.15125 7.36549 2.64403C 6.29643 3.13682 5.38089 3.79543 4.61831 4.61993C 3.85573 5.44438 3.2628 6.40627 2.83896 7.5056C 2.41512 8.60488 2.2032 9.75628 2.2032 10.9599C 2.2032 12.1824 2.42012 13.3361 2.85286 14.4212C 3.28616 15.5063 3.88855 16.4611 4.66058 17.2856C 5.43262 18.1101 6.35317 18.7639 7.42167 19.2472C 8.49017 19.7306 9.66046 19.9722 10.9314 19.9722C 12.2497 19.9722 13.4194 19.7306 14.4406 19.2472C 15.4624 18.7639 16.378 18.1716 17.1878 17.4704L 18.4304 18.963C 17.4231 19.8917 16.2934 20.6095 15.0408 21.1166C 13.7887 21.6236 12.4188 21.8771 10.9314 21.8771Z"/>
<path id="path4_fill" fill-rule="evenodd" d="M 10.0977 1.93352C 9.12816 2.01884 8.22875 2.25577 7.40053 2.64431C 6.32703 3.13709 5.40926 3.79571 4.64668 4.62021C 3.8841 5.44465 3.28616 6.40654 2.85286 7.50588C 2.41957 8.60515 2.2032 9.75656 2.2032 10.9601C 2.2032 12.1826 2.41957 13.3364 2.85286 14.4215C 3.28616 15.5066 3.8841 16.4566 4.64668 17.2716C 5.40926 18.0866 6.32258 18.7358 7.38607 19.2191C 8.2243 19.5982 9.12816 19.8303 10.0977 19.9157L 10.0977 21.8062C 8.88342 21.721 7.73482 21.4556 6.65186 21.0102C 5.32416 20.4606 4.16888 19.6953 3.18493 18.7145C 2.20097 17.7336 1.42393 16.5822 0.854357 15.2602C 0.284786 13.9382 0 12.5048 0 10.9601C 0 9.44382 0.289792 8.01999 0.868819 6.68849C 1.44785 5.35698 2.22934 4.19612 3.21274 3.20579C 4.1967 2.21546 5.35252 1.43127 6.68023 0.853161C 7.76263 0.388817 8.90233 0.113983 10.0977 0.028717L 10.0977 1.93352ZM 11.2136 19.9438C 12.4 19.9059 13.483 19.6737 14.4619 19.2472C 15.526 18.7829 16.4393 18.1432 17.2019 17.3282C 17.9645 16.5132 18.5529 15.5632 18.9673 14.4781C 19.3817 13.393 19.5886 12.2297 19.5886 10.9883C 19.5886 9.69946 19.3817 8.50299 18.9673 7.39895C 18.5529 6.29491 17.9689 5.33543 17.2158 4.52039C 16.4627 3.70541 15.5543 3.06572 14.4903 2.60137C 13.5019 2.17493 12.4095 1.94276 11.2136 1.90486L 11.2136 0C 12.6448 0.0379023 13.9819 0.312736 15.2245 0.8245C 16.5522 1.38363 17.703 2.1536 18.6775 3.13441C 19.652 4.11528 20.4146 5.27144 20.9653 6.60295C 21.5165 7.9344 21.7918 9.3725 21.7918 10.9172C 21.7918 12.4903 21.5115 13.9427 20.9514 15.2741C 20.3913 16.6056 19.6237 17.7618 18.6492 18.7426C 17.6747 19.7235 16.5289 20.484 15.2106 21.0241C 13.9674 21.5264 12.6353 21.7965 11.2136 21.8344L 11.2136 19.9438Z"/>
<path id="path5_fill" fill-rule="evenodd" d="M 0 0L 15.5631 17.0581L 15.5631 0.696517L 17.7663 0.696517L 17.7663 22.7015L 2.20264 5.61497L 2.20264 21.9481L 0 21.9481L 0 0Z"/>
<path id="path6_fill" fill-rule="evenodd" d="M 0.0288696 9.43884L 11.7652 9.43884L 11.7652 11.3294L 0.0288696 11.3294L 0.0288696 9.43884ZM 0.0144618 0L 13.0073 0L 13.0073 1.89063L 0 1.89063L 0.0144618 0Z"/>
</defs>
</svg>
