<svg width="254" height="123" viewBox="0 0 254 123" version="1.1" xmlns="http://www.w3.org/2000/svg" xmlns:xlink="http://www.w3.org/1999/xlink">
<title>Group 2.1</title>
<desc>Created using Figma</desc>
<g id="Canvas" transform="translate(-1691 -362)">
<g id="Group 2.1">
<g id="Logo">
<g id="Boxy">
<use xlink:href="#path0_fill" transform="translate(1691 399.709)" fill="#FFFFFF"/>
</g>
<g id="Group">
<g id="Path 5">
<use xlink:href="#path1_fill" transform="translate(1873.48 362)" fill="#EBEBEB"/>
</g>
<g id="Combined Shape">
<use xlink:href="#path2_fill" transform="translate(1893.35 362.02)" fill="#FFFFFF"/>
</g>
</g>
</g>
</g>
</g>
<defs>
<path id="path0_fill" fill-rule="evenodd" d="M 31.4381 13.8721C 31.3769 15.8362 30.0925 19.3349 26.9731 20.9308C 32.906 23.9385 33.64 29.5242 33.0895 32.8387C 31.9885 39.8361 27.2789 44.0714 17.6763 44.0714L 0 44.0714L 0 0.613803L 17.3705 0.613803C 25.6275 0.613803 31.6827 5.58565 31.4381 13.8721ZM 11.0094 17.6163L 17.3705 17.6163C 22.6917 17.6163 22.8752 9.8823 17.3705 9.8823L 11.0094 9.8823L 11.0094 17.6163ZM 11.0094 34.4346L 17.3705 34.4346C 23.9761 34.4346 23.8538 25.5344 17.3705 25.5344L 11.0094 25.5344L 11.0094 34.4346ZM 38.5164 29.7697L 38.5164 14.9155C 38.5164 4.91046 47.4462 0 56.4373 0C 65.4283 0 74.4194 4.97184 74.4194 14.9155L 74.4194 29.7697C 74.4194 39.7134 65.4895 44.6852 56.4985 44.6852C 47.5074 44.6852 38.5164 39.7134 38.5164 29.7697ZM 49.4646 14.9155L 49.4646 29.7697C 49.4646 32.9615 53.0121 34.496 56.4985 34.496C 59.9848 34.496 63.4711 32.9001 63.4711 29.7697L 63.4711 14.9155C 63.4711 11.5396 59.8624 10.0051 56.315 10.0051C 52.8898 10.0051 49.4646 11.7237 49.4646 14.9155ZM 96.9109 15.468L 89.5101 0.613803L 76.7269 0.613803L 88.8985 22.404L 76.7269 44.0714L 89.5101 44.0714L 96.9109 29.2786L 104.495 44.0714L 117.217 44.0714L 105.107 22.404L 117.217 0.613803L 104.495 0.613803L 96.9109 15.468ZM 143.929 44.0714L 143.929 26.9462L 159.098 0.613803L 146.253 0.613803L 138.424 16.5728L 130.595 0.613803L 117.873 0.613803L 132.981 26.9462L 132.981 44.0714L 143.929 44.0714Z"/>
<path id="path1_fill" fill-rule="evenodd" d="M 0 103.23L 9.90446 104.366L 19.8679 122.996L 19.8679 0L 0 5.38055L 5.79018e-15 100.747"/>
<path id="path2_fill" fill-rule="evenodd" d="M 51.6492 7.97108L 51.6492 100.129L 18.4965 103.861L 0 122.98L 0 0L 51.6492 7.97108ZM 7.92929 86.7542L 13.2824 79.1598L 33.9885 78.1692L 33.9885 14.7516L 7.92929 10.6053L 7.92929 86.7542ZM 41.0987 32.6694L 47.1353 33.3133L 47.1353 17.5734L 41.0987 16.6603L 41.0987 32.6694Z"/>
</defs>
</svg>
